<?xml version="1.0" encoding="utf-8"?>
<!-- Generator: Adobe Illustrator 24.1.2, SVG Export Plug-In . SVG Version: 6.00 Build 0)  -->
<svg version="1.1" id="Layer_1" xmlns="http://www.w3.org/2000/svg" xmlns:xlink="http://www.w3.org/1999/xlink" x="0px" y="0px"
	 viewBox="0 0 102 102" style="enable-background:new 0 0 102 102;" xml:space="preserve">
<style type="text/css">
	.st0{fill:#C8102E;}
	.st1{fill:#FFFFFF;}
</style>
<path class="st0" d="M67,52c-0.1,2.9,2.2,5.4,5.1,5.6s5.4-2.2,5.6-5.1c0-0.2,0-0.3,0-0.5c0.1-2.9-2.2-5.2-5.1-5.3
	c-0.1,0-0.1,0-0.2,0c-2.9-0.1-5.3,2.2-5.4,5.1C67,51.9,67,52,67,52"/>
<path class="st1" d="M51.4,11.3c9.6,0,19,2.5,27.3,7.4l9.3-7.4c-22.1-14.9-51-14.9-73.2,0l9.3,7.4C32.4,13.8,41.8,11.3,51.4,11.3"/>
<path class="st1" d="M51.4,90.9c-9.6,0-19-2.5-27.3-7.4l-9.4,7.4c22.1,14.9,51,14.9,73.2,0l-9.3-7.4C70.4,88.3,61,90.9,51.4,90.9"/>
<path class="st1" d="M11.6,51.1c0-9.6,2.5-19,7.4-27.3l-7.4-9.3c-14.9,22.1-14.9,51,0,73.2l7.4-9.4C14.1,70,11.6,60.6,11.6,51.1"/>
<path class="st1" d="M83.8,23.8c4.8,8.3,7.4,17.7,7.3,27.3c0,9.5-2.5,18.9-7.3,27.2l7.3,9.4c14.9-22.1,14.9-51,0-73.2L83.8,23.8z"/>
<path class="st1" d="M34.2,67.6c-4.8,0-9.4-2.1-12.5-5.8L21,61.1v10l0.1,0.1c4,2.9,8.8,4.4,13.8,4.3c3.7,0.1,7.2-1.1,10-3.5
	c2.6-2.6,4-6.1,4-9.7c0-8.8-7.8-12.8-12.3-15.2L36,46.8c-3.5-1.8-6.3-3.2-6.3-5.6c-0.1-1.7,0.8-3.2,2.4-3.9c1.4-0.6,2.9-0.9,4.4-0.8
	c3.7,0,7.3,1.2,10.2,3.5l0.6,0.5V32l-0.1-0.1c-0.6-0.5-4.1-3.1-11.1-3.1h-1c-8.1,0.3-13.9,5.5-13.9,12.4c0,7.8,6,10.6,11.2,13
	l0.3,0.2c4.2,2,7.8,3.9,7.8,7.5C40.4,63.6,39.8,67.6,34.2,67.6"/>
<path class="st1" d="M81.7,40.3v-8.5l-0.1-0.1c0-0.1-4.3-3.1-12.4-3.1C64,28.7,58.9,29.7,54,31.5l-0.2,0.1v44.3h8.7v-38h0.2
	c2.2-0.8,4.6-1.3,7-1.3h0.4c6.7,0.2,10.4,2.7,11.1,3.2L81.7,40.3z"/>
</svg>
