<?xml version="1.0" encoding="utf-8"?>
<!-- Generator: Adobe Illustrator 24.1.2, SVG Export Plug-In . SVG Version: 6.00 Build 0)  -->
<svg version="1.1" id="Layer_1" xmlns="http://www.w3.org/2000/svg" xmlns:xlink="http://www.w3.org/1999/xlink" x="0px" y="0px"
	 viewBox="0 0 340.2 102" style="enable-background:new 0 0 340.2 102;" xml:space="preserve">
<style type="text/css">
	.st0{fill:#C8102E;}
	.st1{fill:#FFFFFF;}
	.st2{clip-path:url(#SVGID_2_);}
	.st3{clip-path:url(#SVGID_4_);}
	.st4{clip-path:url(#SVGID_6_);}
</style>
<g id="Слой_2">
	<g id="图层_1">
		<g>
			<path class="st0" d="M66.6,51.9c-0.1,2.9,2.2,5.4,5.1,5.6s5.4-2.2,5.6-5.1c0-0.2,0-0.3,0-0.5c0.1-2.9-2.2-5.2-5.1-5.3
				c-0.1,0-0.1,0-0.2,0c-2.9-0.1-5.3,2.2-5.4,5.1C66.6,51.8,66.6,51.9,66.6,51.9"/>
			<path class="st1" d="M51,11.2c9.6,0,19,2.5,27.3,7.4l9.3-7.4c-22.1-14.9-51-14.9-73.2,0l9.3,7.4C32,13.7,41.4,11.2,51,11.2"/>
			<path class="st1" d="M51,90.8c-9.6,0-19-2.5-27.3-7.4l-9.4,7.4c22.1,14.9,51,14.9,73.2,0l-9.3-7.4C70,88.2,60.6,90.8,51,90.8"/>
			<path class="st1" d="M11.2,51c0-9.6,2.5-19,7.4-27.3l-7.4-9.3c-14.9,22.1-14.9,51,0,73.2l7.4-9.4C13.7,69.9,11.2,60.5,11.2,51"/>
			<path class="st1" d="M83.4,23.7c4.8,8.3,7.4,17.7,7.3,27.3c0,9.5-2.5,18.9-7.3,27.2l7.3,9.4c14.9-22.1,14.9-51,0-73.2L83.4,23.7z
				"/>
			<path class="st1" d="M33.8,67.5c-4.8,0-9.4-2.1-12.5-5.8L20.6,61v10l0.1,0.1c4,2.9,8.8,4.4,13.8,4.3c3.7,0.1,7.2-1.1,10-3.5
				c2.6-2.6,4-6.1,4-9.7c0-8.8-7.8-12.8-12.3-15.2l-0.6-0.3c-3.5-1.8-6.3-3.2-6.3-5.6c-0.1-1.7,0.8-3.2,2.4-3.9
				c1.4-0.6,2.9-0.9,4.4-0.8c3.7,0,7.3,1.2,10.2,3.5l0.6,0.5v-8.5l-0.1-0.1c-0.6-0.5-4.1-3.1-11.1-3.1h-1
				c-8.1,0.3-13.9,5.5-13.9,12.4c0,7.8,6,10.6,11.2,13l0.3,0.2c4.2,2,7.8,3.9,7.8,7.5C40,63.5,39.4,67.5,33.8,67.5"/>
			<path class="st1" d="M81.3,40.2v-8.5l-0.1-0.1c0-0.1-4.3-3.1-12.4-3.1c-5.2,0.1-10.3,1.1-15.2,2.9l-0.2,0.1v44.3h8.7V37.8h0.2
				c2.2-0.8,4.6-1.3,7-1.3h0.4c6.7,0.2,10.4,2.7,11.1,3.2L81.3,40.2z"/>
			<polygon class="st1" points="161.8,46.7 176.8,46.7 176.8,40.7 167.6,40.7 167.6,33.2 175.6,33.2 175.6,27.6 167.6,27.6 
				167.6,20.8 176.8,20.8 176.8,15.1 161.8,15.1 			"/>
			<path class="st1" d="M195.9,24.4c0-2-0.4-5.8-3.1-7.7c-1.7-1.2-3.5-1.7-7.3-1.6h-6.5v31.6h5.9V35l1.6-0.1c2.2,5.1,2.8,6,4.9,11.8
				h6.8c-1.3-2.2-5.8-11.6-6.7-13.6C192.8,32.3,195.8,30.5,195.9,24.4 M188.5,28.4c-0.9,0.7-2.1,0.8-3.8,0.9v-8.7
				c0.5,0,0.9-0.1,1.4,0c1.3,0,3.8,0.2,3.8,4C190,25.7,189.8,27.5,188.5,28.4"/>
			<rect x="115.2" y="15.1" class="st1" width="5.4" height="31.6"/>
			<polygon class="st1" points="143.6,20.9 149.1,20.9 149.1,46.7 154.5,46.7 154.5,20.9 160,20.9 160,15.1 143.6,15.1 			"/>
			<polygon class="st1" points="237.4,20.9 242.8,20.9 242.8,46.7 248.3,46.7 248.3,20.9 253.8,20.9 253.8,15.1 237.4,15.1 			"/>
			<rect x="255.3" y="15.1" class="st1" width="5.4" height="31.6"/>
			<polygon class="st1" points="331,40.9 331,15.1 325.6,15.1 325.6,46.7 339.9,46.7 339.9,40.9 			"/>
			<path class="st1" d="M281.6,30.7c0-4.7-0.9-8.4-2.6-11.3c-1.8-2.9-4.1-4.3-6.9-4.3h-0.5c-2.8,0-5.1,1.4-6.9,4.3
				s-2.6,6.6-2.6,11.3c0,0.1,0,0.2,0,0.3s0,0.2,0,0.3c0,4.6,0.9,8.3,2.7,11.1c1.8,2.8,4.1,4.3,7,4.3h0.2c2.9,0,5.2-1.4,7-4.3
				c1.8-2.8,2.7-6.6,2.7-11.1L281.6,30.7 M275.5,38c-0.9,1.7-2,2.5-3.4,2.6h-0.2h-0.2c-1.4-0.1-2.5-0.9-3.4-2.6
				c-1-2.2-1.5-4.6-1.4-7c0-0.6,0-1.1,0.1-1.6c0.1-1.9,0.5-3.8,1.3-5.5c0.9-1.7,2.1-2.6,3.6-2.7c1.5,0,2.7,0.9,3.6,2.7
				c0.8,1.7,1.3,3.6,1.3,5.5c0,0.5,0,1.1,0,1.6C276.9,33.4,276.5,35.8,275.5,38"/>
			<polygon class="st1" points="137.1,15.1 137.1,38.9 130.6,15.1 123.2,15.1 123.2,46.4 128.1,46.4 128.1,22.7 134.5,46.5 
				142,46.5 142,15.1 			"/>
			<polygon class="st1" points="212.6,15.1 212.6,38.9 206.1,15.1 198.7,15.1 198.7,46.4 203.6,46.4 203.5,22.7 210,46.5 
				217.5,46.5 217.5,15.1 			"/>
			<polygon class="st1" points="296.7,15.1 296.7,38.9 290.1,15.1 282.8,15.1 282.8,46.4 287.6,46.5 287.6,22.7 294.1,46.5 
				301.5,46.5 301.5,15.1 			"/>
			<path class="st1" d="M225.8,15.1h6l7.5,31.4H234l-1.5-6.7h-7.3l-1.5,6.7h-5.3L225.8,15.1z M229,21.6L229,21.6l-2.6,12.3h4.9
				L229,21.6z"/>
			<path class="st1" d="M309.9,15.1h6l7.5,31.4h-5.3l-1.5-6.7h-7.4l-1.5,6.7h-5.3L309.9,15.1z M313.1,21.6L313.1,21.6l-2.6,12.3h4.9
				L313.1,21.6z"/>
			<path class="st1" d="M201.8,84.5l1.3-2h3.3v-7h-23.8v7h3.3l1.3,2h-8.5v2.9h31.6v-2.9H201.8z M186.3,78.2h16.3v1.4h-16.3V78.2z
				 M198.1,84.5H191l-1.3-2h9.7L198.1,84.5z"/>
			<rect x="178.7" y="71.3" class="st1" width="31.7" height="2.8"/>
			<polygon class="st1" points="205.9,56 205.9,67.4 202.4,67.4 202.4,66.3 204.9,66.3 204.9,63.9 202.4,63.9 202.4,62.6 
				204.9,62.6 204.9,60.3 202.4,60.3 202.4,59 204.9,59 204.9,56.6 202.4,56.6 202.4,55.1 199.7,55.1 199.7,56.6 197.2,56.6 
				197.2,59 199.7,59 199.7,60.3 197.2,60.3 197.2,62.6 199.7,62.6 199.7,63.9 197.2,63.9 197.2,66.3 199.7,66.3 199.7,67.4 
				196.2,67.4 196.2,54.5 192.8,54.5 192.8,67.4 189.3,67.4 189.3,66.3 191.8,66.3 191.8,63.9 189.3,63.9 189.3,62.6 191.8,62.6 
				191.8,60.3 189.3,60.3 189.3,59 191.8,59 191.8,56.6 189.3,56.6 189.3,55.1 186.5,55.1 186.5,56.6 184.1,56.6 184.1,59 186.5,59 
				186.5,60.3 184.1,60.3 184.1,62.6 186.5,62.6 186.5,63.9 184.1,63.9 184.1,66.3 186.5,66.3 186.5,67.4 183.1,67.4 183.1,56 
				179.7,56 179.7,70.1 209.3,70.1 209.3,56 			"/>
			<g>
				<g>
					<rect x="125.2" y="55" class="st1" width="3.4" height="31.9"/>
					<g>
						<defs>
							<rect id="SVGID_1_" x="125.2" y="55" width="3.4" height="31.9"/>
						</defs>
						<clipPath id="SVGID_2_">
							<use xlink:href="#SVGID_1_"  style="overflow:visible;"/>
						</clipPath>
						<g class="st2">
							<rect x="125.2" y="55" class="st1" width="3.4" height="31.9"/>
						</g>
					</g>
				</g>
			</g>
			<g>
				<g>
					<rect x="120" y="57.1" class="st1" width="3.4" height="25.1"/>
					<g>
						<defs>
							<rect id="SVGID_3_" x="120" y="57.1" width="3.4" height="25.1"/>
						</defs>
						<clipPath id="SVGID_4_">
							<use xlink:href="#SVGID_3_"  style="overflow:visible;"/>
						</clipPath>
						<g class="st3">
							<rect x="120" y="57.1" class="st1" width="3.4" height="25.1"/>
						</g>
					</g>
				</g>
			</g>
			<g>
				<g>
					<rect x="113.3" y="55" class="st1" width="4.9" height="32"/>
					<g>
						<defs>
							<rect id="SVGID_5_" x="113.3" y="55" width="4.9" height="32"/>
						</defs>
						<clipPath id="SVGID_6_">
							<use xlink:href="#SVGID_5_"  style="overflow:visible;"/>
						</clipPath>
						<g class="st4">
							<path class="st1" d="M118.2,55H115c0,0,0,17.5,0,22.7c0,3.2-0.5,5-1.6,5.9l1.4,3.4c1.8-1.1,3.3-3.3,3.5-8L118.2,55L118.2,55z
								"/>
						</g>
					</g>
				</g>
			</g>
			<polygon class="st1" points="145.6,84.8 143.5,87.1 139.2,83 141.4,80.7 			"/>
			<polygon class="st1" points="130.4,84.8 132.6,87.1 136.8,83 134.6,80.7 			"/>
			<path class="st1" d="M145.9,58.2V55h-15.8v3.2h5.1l-1.1,3.2h-3.4v18.7h14.4V61.3h-7.5l1.1-3.2L145.9,58.2z M141.9,77h-7.7v-2.3
				h7.7V77z M141.9,71.7h-7.7v-2.2h7.7V71.7z M141.9,66.6h-7.7v-2.2h7.7V66.6z"/>
			<path class="st1" d="M321.3,78.6c-0.9,1.9-2,3.7-3.3,5.3c0.8,0.5,2.1,1.3,2.9,1.8c1.4-1.9,2.7-4,3.7-6.1L321.3,78.6z"/>
			<path class="st1" d="M330.8,83.4V77h6.9v-3.2h-17.1V77h6.7v6.3c0,0.2,0,0.4-0.2,0.5c-0.1,0.1-0.3,0.1-0.5,0.1c-0.2,0-0.5,0-0.9,0
				s-1.1,0-1.8,0c0.5,1,0.9,2.1,1.1,3.3c1.9,0,3.3,0,4.4-0.6l0,0c0.5-0.2,0.9-0.6,1.1-1.1C330.7,84.8,330.8,84.1,330.8,83.4"/>
			<path class="st1" d="M339.6,83.7c-0.9-1.4-2.7-3.7-3.9-5.4l-2.8,1.5c1.2,1.8,2.9,4.2,3.7,5.7L339.6,83.7z"/>
			<path class="st1" d="M335.7,66.4L335.7,66.4v-0.2c1.7-2.4,3-5,4-7.7l-2.1-1.3l-0.6,0.2h-5.2v-0.1c-0.2-0.7-0.3-1.4-0.5-2.1
				l-2.8,0.4c0.1,0.5,0.2,1,0.3,1.5v0.3l-1.1-0.5l-0.5,0.1h-2.9l0.1-0.2c0.2-0.5,0.4-1.1,0.6-1.6l-2.8-0.6c-0.9,3.1-2.5,6-4.8,8.4
				l-0.4,0.4l0.2-0.5c0.6-1.9,1.2-3.9,1.7-5.7l-2.5-1.4l-0.5,0.1h-7.2v31.2h3.3V75.6v-0.1l0,0V59.4h2.9v0.2
				c-0.5,2.3-1.1,5.2-1.8,7.3c1.4,1.9,2.2,4.1,2.2,6.4c0.1,0.8-0.1,1.6-0.6,2.2l0,0c-0.3,0.2-0.6,0.3-1,0.3l0,0c-0.2,0-0.3,0-0.5,0
				c-0.2,0-0.4,0-0.7,0c0.5,1,0.8,2.2,0.8,3.3c0.7,0,1.3,0,2-0.1l0,0c0.7-0.1,1.3-0.3,1.8-0.7l0,0c1-0.8,1.5-2.3,1.5-4.5
				c0-1.1-0.1-2.1-0.4-3.1l-0.1-0.2v-0.1c-0.4-1.4-1-2.6-1.9-3.8v-0.1v-0.1c0.3-0.8,0.6-1.7,0.9-2.6l0.1-0.2l0.2,0.1
				c0.7,0.5,1.4,1.1,2,1.7c1.7-1.8,3.1-3.8,4.1-6v-0.1h2.9l-0.1,0.2c-0.2,0.8-0.5,1.5-0.8,2.2l-0.1,0.2l-0.1-0.1
				c-0.5-0.3-1.1-0.6-1.5-0.8l-1.1,1.5c0.6,0.3,1.2,0.8,1.8,1.2l0.1,0.1l-0.1,0.1c-0.3,0.6-0.7,1.1-1,1.6l-0.1,0.1l-0.1-0.1
				c-0.6-0.4-1.2-0.8-1.7-1.2l-1.3,1.4c0.6,0.4,1.2,0.9,1.8,1.4l0.1,0.1l-0.1,0.1c-1.1,1.2-2.3,2.2-3.7,3.1l0.1,0.1
				c0.6,0.7,1.2,1.4,1.7,2.2c1.3-0.9,2.5-1.9,3.6-3.1l0.2-0.3v2.1h10.5v-1.7l0.3,0.3c1,1.1,2.2,2,3.5,2.8c0.6-1,1.3-2,2.1-2.8
				C338.5,69.2,337,68,335.7,66.4 M324.9,68.2L325,68c1.8-2.5,3.2-5.4,4-8.4l0.1-0.5l0.1,0.5c0.7,3,1.9,5.8,3.6,8.4l0.1,0.2
				L324.9,68.2z M334.2,63.5l-0.1,0.2l-0.1-0.2c-0.6-1.1-1-2.2-1.4-3.3l-0.1-0.2h3.3l-0.1,0.2C335.3,61.3,334.8,62.4,334.2,63.5"/>
			<path class="st1" d="M250,74.2h8.3v-7.1H250V74.2z M255.5,72.1h-2.9v-2.8h2.9V72.1z"/>
			<path class="st1" d="M267,62l0.3,0.3h-4.6v-0.1c-0.1-1-0.1-2-0.1-3.1h-3.5c0.1,1,0.1,2,0.2,3v0.2H249v2.9h10.6v0.1
				c0.2,3.3,0.8,6.7,1.6,9.9v0.1v0.1c-0.6,0.7-1.2,1.3-1.9,1.9l-0.2,0.2l-0.1-1.9c-3.9,0.5-7.7,1-10.5,1.2l0.5,3l8.2-1.2l0.7-0.1
				l-0.6,0.4l-1,0.6c0.8,0.8,1.6,1.7,2.3,2.6c1.5-0.9,2.8-2.1,4-3.3l0.1-0.1l0.1,0.2c0.6,1.2,1.6,2.1,2.8,2.6l0,0
				c0.5,0.2,0.9,0.3,1.5,0.3c0.9,0,1.7-0.5,2.1-1.2c0.7-1.2,1.1-2.5,1.2-3.9c-0.9-0.6-1.8-1.2-2.6-1.9c0,1-0.2,2-0.5,3
				c-0.1,0.2-0.2,0.3-0.4,0.3h-0.1c-0.7-0.2-1.3-1-1.8-2.2v-0.1v-0.1c1.8-2.6,3.2-5.5,4-8.5l-3.2-0.6c-0.4,1.6-1,3.1-1.7,4.6
				l-0.2,0.4l-0.1-0.4c-0.3-1.7-0.6-3.7-0.8-5.8v-0.2h6.9v-2.9h-1.9l1.6-1.8c-0.9-0.8-1.9-1.4-2.9-2l-0.5-0.3l-1.8,1.9
				C265.3,60.7,266.2,61.3,267,62"/>
			<path class="st1" d="M274.9,87.2V54.7H244v32.5h3.3v-1.6h24.3v1.6H274.9z M247.3,82.4V58h24.3v24.3L247.3,82.4z"/>
			<rect x="271.6" y="54.7" class="st1" width="3.3" height="32.5"/>
		</g>
	</g>
</g>
</svg>
