<svg xmlns="http://www.w3.org/2000/svg" xmlns:xlink="http://www.w3.org/1999/xlink" viewBox="0 0 340.16 101.96">
  <defs>
    <style>
      .cls-1 {
        fill: #fff;
      }

      .cls-2 {
        fill: #c8102e;
      }

      .cls-3 {
        isolation: isolate;
      }

      .cls-4 {
        clip-path: url(#clip-path);
      }

      .cls-5 {
        clip-path: url(#clip-path-2);
      }

      .cls-6 {
        clip-path: url(#clip-path-3);
      }
    </style>
    <clipPath id="clip-path">
      <rect class="cls-1" x="125.15" y="54.99" width="3.37" height="31.85"/>
    </clipPath>
    <clipPath id="clip-path-2">
      <rect class="cls-1" x="120.01" y="57.06" width="3.43" height="25.12"/>
    </clipPath>
    <clipPath id="clip-path-3">
      <rect class="cls-1" x="113.29" y="54.99" width="4.95" height="31.95"/>
    </clipPath>
  </defs>
  <title>Ресурс 1</title>
  <g id="Слой_2" data-name="Слой 2">
    <g id="图层_1" data-name="图层 1">
      <g>
        <path class="cls-2" d="M66.62,51.92a5.34,5.34,0,1,0,10.67,0A5.18,5.18,0,0,0,72,46.63a5.27,5.27,0,0,0-5.4,5.29"/>
        <path class="cls-1" d="M51,11.19a54.21,54.21,0,0,1,27.25,7.36l9.32-7.36a65.37,65.37,0,0,0-73.15,0l9.33,7.36A54.18,54.18,0,0,1,51,11.19"/>
        <path class="cls-1" d="M51,90.77a54.08,54.08,0,0,1-27.25-7.36L14.4,90.77a65.37,65.37,0,0,0,73.15,0l-9.32-7.36A54.11,54.11,0,0,1,51,90.77"/>
        <path class="cls-1" d="M11.19,51a53.83,53.83,0,0,1,7.36-27.25l-7.36-9.32a65.37,65.37,0,0,0,0,73.15l7.36-9.43A53.44,53.44,0,0,1,11.19,51"/>
        <path class="cls-1" d="M83.41,23.73A53.93,53.93,0,0,1,90.76,51a53.53,53.53,0,0,1-7.35,27.15l7.35,9.43a65.37,65.37,0,0,0,0-73.15Z"/>
        <path class="cls-1" d="M33.78,67.46a16.43,16.43,0,0,1-12.54-5.8L20.61,61V71l.11.1A22.93,22.93,0,0,0,34.5,75.44a14.58,14.58,0,0,0,10-3.53,13.51,13.51,0,0,0,4-9.74c0-8.8-7.77-12.84-12.33-15.23l-.62-.31C32,44.87,29.22,43.42,29.22,41A3.9,3.9,0,0,1,31.6,37.1,10.48,10.48,0,0,1,36,36.27a15.9,15.9,0,0,1,10.15,3.52l.62.52v-8.5l-.11-.1c-.62-.52-4.14-3.11-11.08-3.11h-1c-8.08.31-13.89,5.49-13.89,12.44,0,7.77,6,10.57,11.2,13.05l.31.2c4.15,2,7.77,3.94,7.77,7.47,0,1.76-.62,5.7-6.11,5.7"/>
        <path class="cls-1" d="M81.34,40.21v-8.5l-.11-.1c0-.11-4.25-3.11-12.43-3.11a48.24,48.24,0,0,0-15.24,2.9l-.2.1V75.75h8.7V37.83h.21a19.62,19.62,0,0,1,7-1.25h.41c6.73.21,10.36,2.7,11.09,3.21Z"/>
        <polygon class="cls-1" points="161.83 46.74 176.76 46.74 176.76 40.69 167.57 40.69 167.57 33.15 175.64 33.15 175.64 27.59 167.57 27.59 167.57 20.75 176.79 20.75 176.79 15.09 161.83 15.09 161.83 46.74"/>
        <path class="cls-1" d="M195.85,24.42c0-2-.39-5.82-3.11-7.74-1.69-1.22-3.48-1.67-7.34-1.58l-6.5,0,0,31.59h5.86V35.05l1.56-.14c2.2,5.09,2.8,6,4.9,11.82H198c-1.26-2.18-5.84-11.62-6.66-13.57,1.48-.91,4.48-2.63,4.48-8.74m-7.29,4c-.92.73-2.1.82-3.76.85V20.54a12.92,12.92,0,0,1,1.39-.05c1.28,0,3.82.23,3.82,4,0,1.18-.22,3-1.45,4"/>
        <rect class="cls-1" x="115.17" y="15.09" width="5.41" height="31.6"/>
        <polygon class="cls-1" points="143.62 20.89 149.09 20.89 149.09 46.7 154.53 46.7 154.53 20.89 160.04 20.89 160.04 15.09 143.62 15.09 143.62 20.89"/>
        <polygon class="cls-1" points="237.35 20.89 242.82 20.89 242.82 46.7 248.27 46.7 248.27 20.89 253.77 20.89 253.77 15.1 237.35 15.1 237.35 20.89"/>
        <rect class="cls-1" x="255.32" y="15.1" width="5.42" height="31.6"/>
        <polygon class="cls-1" points="330.98 40.93 330.98 15.1 325.57 15.1 325.57 46.7 339.89 46.7 339.89 40.93 330.98 40.93"/>
        <path class="cls-1" d="M281.61,30.67q0-7-2.62-11.28c-1.76-2.87-4.06-4.29-6.89-4.29h-.46c-2.84,0-5.13,1.42-6.88,4.29s-2.64,6.61-2.64,11.28c0,.11,0,.21,0,.31s0,.21,0,.31q0,6.87,2.71,11.14t6.95,4.27H272q4.28,0,7-4.27t2.69-11.14v-.62M275.46,38c-.86,1.65-2,2.51-3.35,2.59l-.24,0-.24,0c-1.37-.08-2.48-.94-3.35-2.59a15.36,15.36,0,0,1-1.37-7c0-.57,0-1.1.06-1.63a14.07,14.07,0,0,1,1.31-5.54q1.34-2.61,3.59-2.67t3.59,2.67a14.06,14.06,0,0,1,1.32,5.54c0,.53.05,1.06.05,1.63a15.23,15.23,0,0,1-1.37,7"/>
        <polygon class="cls-1" points="137.15 15.09 137.15 38.88 130.58 15.09 123.23 15.09 123.23 46.41 128.08 46.44 128.05 22.73 134.53 46.48 141.99 46.48 141.99 15.09 137.15 15.09"/>
        <polygon class="cls-1" points="212.65 15.09 212.65 38.88 206.08 15.09 198.73 15.09 198.73 46.41 203.58 46.44 203.54 22.73 210.02 46.48 217.5 46.48 217.5 15.09 212.65 15.09"/>
        <polygon class="cls-1" points="296.7 15.1 296.7 38.88 290.13 15.1 282.78 15.1 282.78 46.42 287.63 46.45 287.6 22.74 294.07 46.48 301.55 46.49 301.55 15.1 296.7 15.1"/>
        <path class="cls-1" d="M225.83,15.09h6l7.54,31.42H234l-1.46-6.71h-7.34l-1.54,6.71h-5.3Zm3.2,6.49H229l-2.53,12.28h4.91Z"/>
        <path class="cls-1" d="M309.87,15.1h6l7.54,31.42h-5.3l-1.46-6.71h-7.35l-1.53,6.71h-5.31Zm3.2,6.48H313l-2.53,12.29h4.91Z"/>
        <path class="cls-1" d="M201.8,84.47l1.28-2h3.33v-7H182.6v7h3.32l1.28,2h-8.52v2.86h31.65V84.47Zm-15.47-6.25h16.32v1.45H186.33Zm11.73,6.25H191l-1.28-2h9.66Z"/>
        <rect class="cls-1" x="178.68" y="71.31" width="31.67" height="2.83"/>
        <polygon class="cls-1" points="205.94 55.98 205.94 67.43 202.44 67.43 202.44 66.29 204.93 66.29 204.93 63.92 202.44 63.92 202.44 62.62 204.93 62.62 204.93 60.25 202.44 60.25 202.44 58.99 204.93 58.99 204.93 56.64 202.44 56.64 202.44 55.11 199.7 55.11 199.7 56.64 197.22 56.64 197.22 58.99 199.7 58.99 199.7 60.25 197.22 60.25 197.22 62.62 199.7 62.62 199.7 63.92 197.22 63.92 197.22 66.29 199.7 66.29 199.7 67.43 196.22 67.43 196.22 54.53 192.77 54.53 192.77 67.43 189.28 67.43 189.28 66.29 191.78 66.29 191.78 63.92 189.28 63.92 189.28 62.62 191.78 62.62 191.78 60.25 189.28 60.25 189.28 58.99 191.78 58.99 191.78 56.64 189.28 56.64 189.28 55.11 186.53 55.11 186.53 56.64 184.07 56.64 184.07 58.99 186.53 58.99 186.53 60.25 184.07 60.25 184.07 62.62 186.53 62.62 186.53 63.92 184.07 63.92 184.07 66.29 186.53 66.29 186.53 67.43 183.07 67.43 183.07 55.98 179.72 55.98 179.72 70.06 209.26 70.06 209.26 55.98 205.94 55.98"/>
        <g class="cls-3">
          <g>
            <rect class="cls-1" x="125.15" y="54.99" width="3.37" height="31.85"/>
            <g class="cls-4">
              <rect class="cls-1" x="125.15" y="54.99" width="3.37" height="31.85"/>
            </g>
          </g>
        </g>
        <g class="cls-3">
          <g>
            <rect class="cls-1" x="120.01" y="57.06" width="3.43" height="25.12"/>
            <g class="cls-5">
              <rect class="cls-1" x="120.01" y="57.06" width="3.43" height="25.12"/>
            </g>
          </g>
        </g>
        <g class="cls-3">
          <g>
            <rect class="cls-1" x="113.29" y="54.99" width="4.95" height="31.95"/>
            <g class="cls-6">
              <path class="cls-1" d="M118.23,55H115s0,17.51,0,22.69c0,3.24-.49,5-1.64,5.88l1.4,3.38c1.85-1.1,3.31-3.33,3.54-8V55Z"/>
            </g>
          </g>
        </g>
        <polygon class="cls-1" points="145.56 84.79 143.46 87.1 139.24 82.97 141.36 80.67 145.56 84.79"/>
        <polygon class="cls-1" points="130.44 84.79 132.55 87.1 136.77 82.97 134.65 80.67 130.44 84.79"/>
        <path class="cls-1" d="M145.9,58.17V55H130.14v3.18h5.13l-1.09,3.16h-3.36V80.05h14.39V61.33h-7.52l1.09-3.16Zm-4,18.8h-7.73V74.68h7.73Zm0-5.23h-7.73V69.53h7.73Zm0-5.15h-7.73V64.38h7.73Z"/>
        <path class="cls-1" d="M321.34,78.55A27,27,0,0,1,318,83.84c.82.48,2.12,1.27,2.86,1.81a43.15,43.15,0,0,0,3.74-6.09Z"/>
        <path class="cls-1" d="M330.78,83.45V77h6.87V73.78H320.56V77h6.66v6.31a.57.57,0,0,1-.16.48.78.78,0,0,1-.5.11c-.17,0-.48,0-.87,0s-1.13,0-1.77,0A13.4,13.4,0,0,1,325,87.18c1.88,0,3.31,0,4.37-.58h0a2.1,2.1,0,0,0,1.1-1.14,5.53,5.53,0,0,0,.27-2"/>
        <path class="cls-1" d="M339.63,83.72c-.91-1.45-2.66-3.73-3.93-5.41l-2.82,1.53c1.23,1.8,2.93,4.16,3.73,5.67Z"/>
        <path class="cls-1" d="M335.74,66.45l-.07-.08.07-.09a29,29,0,0,0,3.95-7.71l-2.1-1.25-.59.17h-5.24l0-.1c-.2-.71-.34-1.41-.47-2.1l-2.82.41c.1.52.19,1,.29,1.55l0,.26L327.63,57l-.5.13h-2.86l.07-.19c.19-.55.41-1.1.58-1.64l-2.75-.64a19.64,19.64,0,0,1-4.75,8.39l-.4.39.16-.54c.59-1.9,1.18-3.9,1.7-5.67l-2.53-1.43-.53.13h-7.24V87.15h3.31V75.57l0-.07h0V59.43h2.86l0,.17c-.49,2.27-1.15,5.15-1.78,7.27a10.6,10.6,0,0,1,2.17,6.44,2.94,2.94,0,0,1-.61,2.21h0a1.41,1.41,0,0,1-1,.31h0a3.58,3.58,0,0,1-.49,0c-.2,0-.44,0-.69,0a9.46,9.46,0,0,1,.82,3.32,11.93,11.93,0,0,0,2-.1h0a3.38,3.38,0,0,0,1.82-.74h0c1-.76,1.46-2.26,1.46-4.54a13.36,13.36,0,0,0-.38-3.13l-.06-.22v-.06a12.39,12.39,0,0,0-1.85-3.8l0-.06,0-.07c.28-.8.57-1.68.85-2.6l.06-.19.16.12a24.24,24.24,0,0,1,2,1.71,23.17,23.17,0,0,0,4.1-6l0-.07h2.92l-.06.18c-.24.78-.53,1.52-.77,2.19l-.06.16-.14-.09c-.53-.29-1.06-.58-1.55-.82l-1.14,1.54c.57.35,1.19.76,1.78,1.16l.11.07-.07.11c-.32.58-.68,1.07-1,1.6l-.08.12-.12-.09c-.56-.43-1.18-.85-1.69-1.19l-1.32,1.38c.57.41,1.22.93,1.78,1.39l.11.09-.1.11a16.43,16.43,0,0,1-3.67,3.08l.07.07a13.17,13.17,0,0,1,1.7,2.23,19.31,19.31,0,0,0,3.6-3.07l.24-.27V71.5h10.46V69.82l.25.25a16.07,16.07,0,0,0,3.54,2.76,14.28,14.28,0,0,1,2.11-2.8,12.54,12.54,0,0,1-4.42-3.58m-10.92,1.78L325,68a25,25,0,0,0,4-8.38l.14-.5.13.51A27.47,27.47,0,0,0,332.83,68l.15.22Zm9.28-4.75-.13.22-.11-.23a18.56,18.56,0,0,1-1.35-3.3l-.06-.18h3.32l-.07.19a19.75,19.75,0,0,1-1.6,3.3"/>
        <path class="cls-1" d="M250,74.24h8.3V67.15H250Zm5.54-2.16h-2.93V69.27h2.93Z"/>
        <path class="cls-1" d="M267.05,62l.3.26h-4.59v-.14c-.07-1-.11-2-.14-3.07h-3.49c.07,1,.11,2,.18,3.05v.16H249v2.92h10.61l0,.13a54.37,54.37,0,0,0,1.64,9.91l0,.07,0,.07a15.34,15.34,0,0,1-1.89,1.89l-.23.19-.09-1.9c-3.89.48-7.72,1-10.47,1.23l.46,3,8.15-1.17.72-.1-.63.38-1.05.62a19.92,19.92,0,0,1,2.27,2.6,22.73,22.73,0,0,0,4-3.3l.13-.14.1.17a5.37,5.37,0,0,0,2.83,2.57h0a3.61,3.61,0,0,0,1.45.35,2.54,2.54,0,0,0,2.14-1.24,8.84,8.84,0,0,0,1.23-3.9,17.15,17.15,0,0,1-2.58-1.9,10.18,10.18,0,0,1-.53,3,.52.52,0,0,1-.42.34h-.09c-.7-.19-1.27-1-1.78-2.23l0-.07,0-.07a27.88,27.88,0,0,0,4-8.52l-3.22-.63a22.48,22.48,0,0,1-1.7,4.6l-.19.4-.08-.44c-.31-1.72-.58-3.68-.77-5.78v-.16h6.85V62.26h-1.94l1.58-1.75a15.81,15.81,0,0,0-2.89-2l-.47-.26-1.78,1.86A19.5,19.5,0,0,1,267.05,62"/>
        <path class="cls-1" d="M274.89,87.19V54.67H244V87.19h3.3V85.64H271.6v1.55Zm-27.6-4.84V58H271.6V82.35Z"/>
        <rect class="cls-1" x="271.6" y="54.67" width="3.3" height="32.51"/>
      </g>
    </g>
  </g>
</svg>
