<?xml version="1.0" encoding="utf-8"?>
<!-- Generator: Adobe Illustrator 24.1.2, SVG Export Plug-In . SVG Version: 6.00 Build 0)  -->
<svg version="1.1" id="图层_1" xmlns="http://www.w3.org/2000/svg" xmlns:xlink="http://www.w3.org/1999/xlink" x="0px" y="0px"
	 viewBox="0 0 595.3 339" style="enable-background:new 0 0 595.3 339;" xml:space="preserve">
<style type="text/css">
	.st0{fill:#CA151F;}
	.st1{fill:#FFFFFF;}
</style>
<g>
	<path class="st0" d="M194.1,170.4c-0.1,2.9,2.2,5.4,5.1,5.6s5.4-2.2,5.6-5.1c0-0.2,0-0.3,0-0.5c0.1-2.9-2.2-5.2-5.1-5.3
		c-0.1,0-0.1,0-0.2,0c-2.9-0.1-5.3,2.2-5.4,5.1C194.1,170.3,194.1,170.4,194.1,170.4"/>
	<path class="st1" d="M178.4,129.8c9.6,0,18.9,2.5,27.2,7.3l9.3-7.3c-22.1-14.9-50.9-14.9-73,0l9.3,7.3
		C159.5,132.3,168.9,129.8,178.4,129.8"/>
	<path class="st1" d="M178.4,209.2c-9.6,0-18.9-2.5-27.2-7.3l-9.3,7.3c22.1,14.9,50.9,14.9,73,0l-9.3-7.3
		C197.4,206.7,188,209.2,178.4,209.2"/>
	<path class="st1" d="M138.7,169.5c0-9.6,2.5-18.9,7.4-27.2l-7.4-9.3c-14.9,22.1-14.9,50.9,0,73l7.4-9.4
		C141.3,188.4,138.7,179,138.7,169.5"/>
	<path class="st1" d="M210.8,142.3c9.8,16.8,9.8,37.5,0,54.3l7.3,9.4c14.9-22.1,14.9-50.9,0-73L210.8,142.3z"/>
	<path class="st1" d="M161.3,186c-4.8,0-9.4-2.1-12.5-5.8l-0.6-0.6v9.9l0.1,0.1c4,2.9,8.8,4.4,13.8,4.3c3.6,0.1,7.2-1.1,9.9-3.5
		c2.6-2.6,4-6.1,4-9.7c0-8.8-7.8-12.8-12.3-15.2l-0.6-0.3c-3.5-1.8-6.3-3.2-6.3-5.6c-0.2-1.7,0.8-3.3,2.4-3.9
		c1.4-0.6,2.9-0.9,4.4-0.8c3.7,0,7.3,1.2,10.1,3.5l0.6,0.5v-8.5l-0.1-0.1c-0.6-0.5-4.1-3.1-11.1-3.1h-1c-8.1,0.3-13.9,5.5-13.9,12.4
		c0,7.8,6,10.6,11.2,13l0.3,0.2c4.1,2,7.8,3.9,7.8,7.4C167.4,182,166.8,185.9,161.3,186"/>
	<path class="st1" d="M208.8,158.8v-8.5l-0.1-0.1c0-0.1-4.2-3.1-12.4-3.1c-5.2,0.1-10.4,1.1-15.2,2.9l-0.2,0.1v44.2h8.7v-37.9h0.2
		c2.2-0.8,4.6-1.3,7-1.2h0.4c6.7,0.2,10.3,2.7,11.1,3.2L208.8,158.8z"/>
	<polygon class="st1" points="289.1,164.9 304,164.9 304,159.1 294.8,159.1 294.8,151.6 302.9,151.6 302.9,146.1 294.8,146.1 
		294.8,139.3 304,139.3 304,133.7 289.1,133.7 	"/>
	<path class="st1" d="M323,142.9c0-1.9-0.4-5.8-3.1-7.7c-1.7-1.2-3.5-1.7-7.3-1.6h-6.5v31.2h5.9v-11.4l1.5-0.1
		c2.2,5,2.7,5.7,4.8,11.5h6.8c-1.3-2.2-5.7-11.3-6.5-13.3C320,150.7,323,149,323,142.9 M315.8,146.9c-0.9,0.7-2.1,0.8-3.8,0.9v-8.7
		c0.5,0,0.9-0.1,1.4-0.1c1.3,0,3.8,0.2,3.8,3.9C317.2,144.1,317,145.9,315.8,146.9"/>
	<rect x="242.5" y="133.7" class="st1" width="5.4" height="31.2"/>
	<polygon class="st1" points="270.9,139.4 276.4,139.4 276.4,164.9 281.8,164.9 281.8,139.4 287.3,139.4 287.3,133.7 270.9,133.7 	
		"/>
	<polygon class="st1" points="364.5,139.4 369.9,139.4 369.9,164.9 375.4,164.9 375.4,139.4 380.9,139.4 380.9,133.7 364.5,133.7 	
		"/>
	<rect x="382.4" y="133.7" class="st1" width="5.4" height="31.2"/>
	<polygon class="st1" points="457.9,159.3 457.9,133.7 452.5,133.7 452.5,164.9 466.8,164.9 466.8,159.3 	"/>
	<path class="st1" d="M408.6,149.1c0-4.6-0.9-8.3-2.6-11.1c-1.8-2.8-4-4.2-6.9-4.2h-0.5c-2.8,0-5.1,1.4-6.9,4.2s-2.6,6.5-2.6,11.1
		c0,0.1,0,0.2,0,0.3s0,0.2,0,0.3c0,4.5,0.9,8.2,2.7,11c1.8,2.8,4.1,4.2,6.9,4.2h0.2c2.8,0,5.2-1.4,7-4.2s2.7-6.5,2.7-11L408.6,149.1
		 M402.5,156.3c-0.6,1.4-1.8,2.4-3.4,2.6H399h-0.2c-1.5-0.2-2.8-1.2-3.3-2.6c-1-2.2-1.5-4.5-1.4-6.9c0-0.6,0-1.1,0.1-1.6
		c0.1-1.9,0.5-3.8,1.3-5.5c0.9-1.7,2.1-2.6,3.6-2.6s2.7,0.9,3.6,2.6c0.8,1.7,1.3,3.6,1.3,5.5c0,0.5,0,1,0,1.6
		C404,151.8,403.5,154.1,402.5,156.3"/>
	<polygon class="st1" points="264.5,133.7 264.5,157.3 257.9,133.7 250.6,133.7 250.6,164.9 255.4,164.9 255.4,141.3 261.8,164.9 
		269.3,164.9 269.3,133.7 	"/>
	<polygon class="st1" points="339.8,133.7 339.8,157.3 333.3,133.7 325.9,133.7 325.9,164.9 330.8,164.9 330.7,141.3 337.2,164.9 
		344.7,164.9 344.7,133.7 	"/>
	<polygon class="st1" points="423.7,133.7 423.7,157.3 417.2,133.7 409.8,133.7 409.8,164.9 414.7,164.9 414.6,141.3 421.1,164.9 
		428.5,164.9 428.5,133.7 	"/>
	<path class="st1" d="M353,133.7h6l7.5,31.2h-5.3l-1.5-6.7h-7.3l-1.5,6.7h-5.3L353,133.7z M356.2,140.1L356.2,140.1l-2.6,12.2h4.9
		L356.2,140.1z"/>
	<path class="st1" d="M436.9,133.7h6l7.5,31.2h-5.3l-1.5-6.7h-7.3l-1.5,6.7h-5.3L436.9,133.7z M440,140.1L440,140.1l-2.6,12.2h4.9
		L440,140.1z"/>
	<path class="st1" d="M371.2,173.4v31.8h31.2v-31.8H371.2z M398.2,200.9h-22.8v-24h22.8L398.2,200.9z"/>
	<path class="st1" d="M377.1,194.8v3.4h19.3v-3.4h-2.5l2-2.1c-0.9-0.9-1.9-1.8-2.8-2.6l-0.3-0.3h2.8v-3.5h-7V183h7.5v-3.4h-18.6v3.4
		h6.7v3.4H378v3.5h6.2v5L377.1,194.8z M388.5,189.8h3.5l-2.2,1.9c0.7,0.7,1.5,1.9,2.3,2.9l0.2,0.2h-3.8V189.8z"/>
	<path class="st1" d="M444.6,198c1-0.8,1.5-2.1,1.5-4.1c0.1-3-0.9-5.9-2.9-8.1l0-0.1v-0.1c1.1-3.5,2.1-6.5,2.9-9.2v-3.1h-11.1v31.9
		h3.9V177h3v0.2c-0.7,2.8-1.5,5.8-2.5,8.9c2,2.3,3,4.6,3,6.8c0,0.5-0.1,0.9-0.5,1.3c-0.3,0.3-0.8,0.5-1.3,0.5h-0.8v4.6h0.5
		C441.9,199.4,443.4,199,444.6,198"/>
	<path class="st1" d="M449.4,200.5l0.1-0.2c1.3-3.1,2.5-6.5,3.7-10.2l-3.7-1c-1.1,3.6-2.4,7.2-4,10.6c1.2,0.4,2.4,0.9,3.7,1.5
		L449.4,200.5L449.4,200.5z"/>
	<path class="st1" d="M455,204.9c0.6,0,1.2,0,1.8-0.1c0.8-0.2,1.5-0.6,2-1.3c0.4-1,0.6-2,0.5-3.1v-14h7.8v-4.1h-20v4.1h7.9v12.3
		c0.1,0.6-0.1,1.1-0.4,1.6c-0.4,0.4-1,0.6-1.5,0.5c-0.9,0-2.7,0-3.2-0.1v4.2h2.4C453.1,204.9,454.1,204.9,455,204.9"/>
	<rect x="448.3" y="173.8" class="st1" width="17.4" height="4.1"/>
	<polygon class="st1" points="467.7,199.7 463.8,189.2 460.1,190.5 463.9,201.1 	"/>
	<polygon class="st1" points="324.6,205.7 320,205.7 320,200.4 307,200.4 307,196.5 320,196.5 320,190.9 310.5,190.9 310.5,186.9 
		320,186.9 320,181.3 307.9,181.3 307.9,177.4 320,177.4 320,172.4 324.6,172.4 324.6,177.4 336.6,177.4 336.6,181.3 324.6,181.3 
		324.6,186.9 334,186.9 334,190.9 324.6,190.9 324.6,196.5 337.5,196.5 337.5,200.4 324.6,200.4 	"/>
	<rect x="253" y="173.2" class="st1" width="3.7" height="32.2"/>
	<path class="st1" d="M246,173.2h-3.5v22.9c0,3.4-0.6,5-1.9,5.9l1.7,3.3c1.9-1.1,3.5-3.3,3.7-8L246,173.2L246,173.2z"/>
	<path class="st1" d="M268.4,197.2v-12h-3.5v12c-0.2,2-0.2,4.4-5.5,4.4v3.7h0.2c3.7-0.2,5.9-1.3,7-2.6c1.3,1.3,3.5,2.4,7,2.6h0.5
		v-3.7C268.6,201.7,268.5,199.3,268.4,197.2"/>
	<polygon class="st1" points="258.4,176.9 258.4,173.4 274.9,173.4 274.9,176.9 267.5,176.9 266.4,179.5 268.2,179.5 274.1,179.5 
		274.1,198.5 270.3,198.5 270.3,183 263,183 263,198.5 259.1,198.5 259.1,179.5 262.7,179.5 263.8,176.9 	"/>
	<rect x="247.7" y="175.4" class="st1" width="3.7" height="25.2"/>
</g>
</svg>
