<svg id="图层_1" data-name="图层 1" xmlns="http://www.w3.org/2000/svg" viewBox="0 0 340.16 101.75">
  <defs>
    <style>
      .cls-1 {
        fill: #ca151f;
      }

      .cls-2 {
        fill: #fff;
      }
    </style>
  </defs>
  <g>
    <path class="cls-1" d="M194.06,170.43a5.33,5.33,0,1,0,10.65.46,3.53,3.53,0,0,0,0-.46,5.17,5.17,0,0,0-5.07-5.27h-.2a5.26,5.26,0,0,0-5.38,5.14v.13" transform="translate(-127.56 -118.62)"/>
    <path class="cls-2" d="M178.44,129.79a54,54,0,0,1,27.21,7.34l9.3-7.34a65.23,65.23,0,0,0-73,0l9.31,7.34a54,54,0,0,1,27.19-7.34" transform="translate(-127.56 -118.62)"/>
    <path class="cls-2" d="M178.44,209.22a54,54,0,0,1-27.19-7.34l-9.31,7.34a65.27,65.27,0,0,0,73,0l-9.3-7.34a54.07,54.07,0,0,1-27.21,7.34" transform="translate(-127.56 -118.62)"/>
    <path class="cls-2" d="M138.73,169.5a53.81,53.81,0,0,1,7.35-27.2l-7.35-9.3a65.23,65.23,0,0,0,0,73l7.35-9.41a53.33,53.33,0,0,1-7.35-27.1" transform="translate(-127.56 -118.62)"/>
    <path class="cls-2" d="M210.81,142.3a53.87,53.87,0,0,1,0,54.3l7.34,9.41a65.23,65.23,0,0,0,0-73Z" transform="translate(-127.56 -118.62)"/>
    <path class="cls-2" d="M161.28,186a16.44,16.44,0,0,1-12.52-5.79l-.62-.62v9.92l.11.11A22.94,22.94,0,0,0,162,193.91a14.53,14.53,0,0,0,9.94-3.52,13.47,13.47,0,0,0,4-9.72c0-8.79-7.76-12.82-12.31-15.2l-.62-.31c-3.51-1.76-6.3-3.21-6.3-5.58a3.9,3.9,0,0,1,2.37-3.94,10.65,10.65,0,0,1,4.35-.82,15.88,15.88,0,0,1,10.13,3.51l.62.52v-8.48l-.1-.1c-.63-.52-4.14-3.11-11.07-3.11h-1c-8.06.31-13.85,5.49-13.85,12.42,0,7.76,6,10.55,11.17,13l.31.2c4.14,2,7.76,3.93,7.76,7.45,0,1.76-.62,5.69-6.1,5.69" transform="translate(-127.56 -118.62)"/>
    <path class="cls-2" d="M208.75,158.75v-8.48l-.11-.1c0-.11-4.24-3.11-12.4-3.11A47.54,47.54,0,0,0,181,150l-.21.1v44.16h8.69V156.37h.21a19.9,19.9,0,0,1,7-1.24h.42c6.71.21,10.34,2.69,11.06,3.2Z" transform="translate(-127.56 -118.62)"/>
    <polygon class="cls-2" points="161.53 46.26 176.43 46.26 176.43 40.47 167.26 40.47 167.26 32.98 175.31 32.98 175.31 27.47 167.26 27.47 167.26 20.67 176.46 20.67 176.46 15.06 161.53 15.06 161.53 46.26"/>
    <path class="cls-2" d="M323.05,142.94c0-1.95-.39-5.78-3.1-7.69-1.69-1.21-3.48-1.66-7.34-1.56h-6.48v31.16H312V153.5l1.55-.14c2.2,5,2.7,5.72,4.8,11.52h6.76c-1.26-2.17-5.74-11.32-6.55-13.26,1.48-.91,4.47-2.61,4.47-8.68m-7.28,4c-.91.73-2.1.81-3.75.85v-8.71a10.78,10.78,0,0,1,1.39-.06c1.28,0,3.81.23,3.81,3.93,0,1.17-.22,3-1.45,4" transform="translate(-127.56 -118.62)"/>
    <rect class="cls-2" x="114.96" y="15.06" width="5.4" height="31.21"/>
    <polygon class="cls-2" points="143.35 20.81 148.82 20.81 148.82 46.26 154.25 46.26 154.25 20.81 159.75 20.81 159.75 15.06 143.35 15.06 143.35 20.81"/>
    <polygon class="cls-2" points="236.92 20.78 242.38 20.78 242.38 46.26 247.81 46.26 247.81 20.78 253.3 20.78 253.3 15.06 236.92 15.06 236.92 20.78"/>
    <rect class="cls-2" x="254.85" y="15.06" width="5.41" height="31.2"/>
    <polygon class="cls-2" points="330.37 40.7 330.37 15.06 324.97 15.06 324.97 46.26 339.26 46.26 339.26 40.7 330.37 40.7"/>
    <path class="cls-2" d="M408.65,149.05q0-6.92-2.62-11.14c-1.75-2.83-4-4.23-6.87-4.23h-.46c-2.83,0-5.12,1.4-6.87,4.23s-2.63,6.53-2.63,11.14v.61q0,6.78,2.7,11c1.78,2.81,4.1,4.22,6.94,4.22H399q4.26,0,7-4.22t2.68-11v-.61m-6.13,7.25a4.15,4.15,0,0,1-3.35,2.56h-.48a4.12,4.12,0,0,1-3.34-2.56,15,15,0,0,1-1.37-6.92,14.09,14.09,0,0,1,.06-1.61,13.65,13.65,0,0,1,1.31-5.47c.88-1.73,2.08-2.6,3.58-2.64s2.69.91,3.59,2.64a14,14,0,0,1,1.31,5.47c0,.52.05,1,.05,1.61a15,15,0,0,1-1.36,6.92" transform="translate(-127.56 -118.62)"/>
    <polygon class="cls-2" points="136.9 15.06 136.9 38.67 130.34 15.06 123 15.06 123 46.23 127.85 46.26 127.82 22.64 134.28 46.23 141.73 46.23 141.73 15.06 136.9 15.06"/>
    <polygon class="cls-2" points="212.27 15.06 212.27 38.7 205.71 15.06 198.37 15.06 198.37 46.26 203.21 46.26 203.17 22.65 209.65 46.26 217.11 46.26 217.11 15.06 212.27 15.06"/>
    <polygon class="cls-2" points="296.15 15.06 296.15 38.68 289.6 15.06 282.26 15.06 282.25 46.26 287.1 46.26 287.07 22.64 293.53 46.23 300.99 46.23 300.99 15.06 296.15 15.06"/>
    <path class="cls-2" d="M353,133.68h6l7.53,31.2h-5.3l-1.46-6.66h-7.33l-1.54,6.66h-5.29Zm3.2,6.43h-.07l-2.52,12.2h4.91Z" transform="translate(-127.56 -118.62)"/>
    <path class="cls-2" d="M436.86,133.68h6l7.52,31.2h-5.29l-1.45-6.66H436.3l-1.53,6.66h-5.3Zm3.19,6.43H440l-2.52,12.21h4.9Z" transform="translate(-127.56 -118.62)"/>
    <path class="cls-2" d="M371.2,173.37v31.75h31.21V173.37Zm27,27.49H375.43v-24h22.75Z" transform="translate(-127.56 -118.62)"/>
    <path class="cls-2" d="M377.08,194.84v3.41h19.27v-3.41h-2.52l1.95-2.15c-.94-.91-1.86-1.77-2.78-2.57l-.29-.25h2.82V186.4h-7V183H396v-3.39H377.42V183h6.72v3.42H378v3.47h6.16v5Zm11.42-5H392l-2.19,1.89c.7.72,1.47,1.87,2.33,2.85l.2.23H388.5Z" transform="translate(-127.56 -118.62)"/>
    <path class="cls-2" d="M444.64,198c1-.82,1.45-2.14,1.45-4.13a11.9,11.9,0,0,0-2.89-8.14l-.05,0v-.08q1.69-5.21,2.85-9.17v-3.1H434.94V205.2h3.94V177h3v.18c-.67,2.82-1.51,5.8-2.54,8.95a10.56,10.56,0,0,1,3,6.84,1.73,1.73,0,0,1-.46,1.3,1.82,1.82,0,0,1-1.27.48h-.79v4.65h.5a6.73,6.73,0,0,0,4.32-1.4" transform="translate(-127.56 -118.62)"/>
    <path class="cls-2" d="M449.41,200.49l.08-.19q1.9-4.58,3.67-10.21l-3.67-1a71.77,71.77,0,0,1-4,10.61c1.2.43,2.43.94,3.67,1.52l.29-.69Z" transform="translate(-127.56 -118.62)"/>
    <path class="cls-2" d="M455,204.89a15,15,0,0,0,1.77-.11,3,3,0,0,0,2-1.32,5.93,5.93,0,0,0,.49-3.11v-14H467v-4.13H447v4.13h7.92v12.32a2.29,2.29,0,0,1-.44,1.58,1.93,1.93,0,0,1-1.5.5c-.88,0-2.68,0-3.16-.06v4.17H455" transform="translate(-127.56 -118.62)"/>
    <rect class="cls-2" x="320.76" y="55.15" width="17.37" height="4.13"/>
    <polygon class="cls-2" points="340.16 81.04 336.25 70.54 332.58 71.87 336.35 82.5 340.16 81.04"/>
    <polygon class="cls-2" points="197.04 87.12 192.41 87.12 192.41 81.75 179.45 81.75 179.45 77.87 192.41 77.87 192.41 72.31 182.97 72.31 182.97 68.24 192.41 68.24 192.41 62.69 180.38 62.69 180.38 58.8 192.41 58.8 192.41 53.8 197.04 53.8 197.04 58.8 209.07 58.8 209.07 62.69 197.04 62.69 197.04 68.24 206.48 68.24 206.48 72.31 197.04 72.31 197.04 77.87 209.99 77.87 209.99 81.75 197.04 81.75 197.04 87.12"/>
    <rect class="cls-2" x="125.48" y="54.55" width="3.7" height="32.2"/>
    <path class="cls-2" d="M246,173.17h-3.52v22.94c0,3.35-.55,5-1.85,5.93l1.67,3.33c1.85-1.12,3.51-3.33,3.7-8v-24.2Z" transform="translate(-127.56 -118.62)"/>
    <path class="cls-2" d="M268.4,197.23v-12h-3.52v12c-.18,2-.18,4.44-5.55,4.44v3.7h.19c3.69-.18,5.92-1.29,7-2.59,1.29,1.3,3.51,2.41,7,2.59H274v-3.7c-5.37,0-5.55-2.4-5.55-4.44" transform="translate(-127.56 -118.62)"/>
    <polygon class="cls-2" points="130.84 58.25 130.84 54.73 147.31 54.73 147.31 58.25 139.92 58.25 138.81 60.84 140.66 60.84 146.58 60.84 146.58 79.9 142.69 79.9 142.69 64.36 135.47 64.36 135.47 79.9 131.59 79.9 131.59 60.84 135.1 60.84 136.22 58.25 130.84 58.25"/>
    <rect class="cls-2" x="120.11" y="56.77" width="3.71" height="25.17"/>
  </g>
</svg>
